<?xml version="1.0"?>
<svg xmlns="http://www.w3.org/2000/svg" viewBox="0 0 512 512" width="512" height="512"><title>Automation-manufacturing-production-technology</title><g id="Solid"><path d="M320,352.971a24.814,24.814,0,0,1,3.416-12.584L319.509,339a8,8,0,0,1-4.711-4.479c-3.761-9.092-5.854-14.139-9.281-22.4l-1.227-2.959a8,8,0,0,1,.165-6.5l11.806-24.83L299.6,261.158l-24.831,11.8a8,8,0,0,1-6.492.167c-10.132-4.191-15.253-6.312-25.386-10.514a7.994,7.994,0,0,1-3.968-3.6l-25.23-11.993-18.806,7.79-9.912,27.872A8,8,0,0,1,177.433,288H142.567a8,8,0,0,1-7.537-5.319l-5.591-15.723c-3.384,3.381-5.913,5.91-10.87,10.866l11.806,24.83a8,8,0,0,1,.165,6.5l-1.227,2.959c-3.427,8.266-5.52,13.313-9.281,22.4a8,8,0,0,1-4.71,4.479l-25.9,9.218v23.57l25.9,9.218a8,8,0,0,1,4.71,4.479c3.761,9.092,5.854,14.139,9.281,22.4l1.227,2.959a8,8,0,0,1-.165,6.5l-11.806,24.83c7.328,7.328,9.338,9.337,16.674,16.667l24.822-11.8a8.005,8.005,0,0,1,6.493-.167c10.132,4.191,15.254,6.312,25.386,10.514a8,8,0,0,1,4.474,4.71l9.209,25.9H229.2l9.209-25.9a8,8,0,0,1,4.474-4.71c10.133-4.2,15.254-6.323,25.386-10.514a8.007,8.007,0,0,1,6.492.167l24.831,11.8,16.666-16.666-11.806-24.83a8,8,0,0,1-.165-6.5l1.227-2.959c3.427-8.266,5.52-13.313,9.281-22.4a8,8,0,0,1,4.713-4.48l13.409-4.768-5.607-5.606A24.813,24.813,0,0,1,320,352.971ZM217.416,432a72,72,0,1,1,72-72A72.081,72.081,0,0,1,217.416,432Z"/><path d="M109.15,230.876l25.376,10.512A7.994,7.994,0,0,1,139,246.1l9.211,25.9h23.574L181,246.1a7.994,7.994,0,0,1,4.476-4.71l25.376-10.512a7.992,7.992,0,0,1,6.5.165l24.829,11.8,16.669-16.669-11.8-24.829a8,8,0,0,1-.165-6.5l10.512-25.376A7.994,7.994,0,0,1,262.1,165l25.9-9.211V132.213L262.1,123a7.994,7.994,0,0,1-4.71-4.476L246.876,93.15a8,8,0,0,1,.165-6.5l11.8-24.829L242.175,45.156l-24.829,11.8a7.992,7.992,0,0,1-6.5.165L185.474,46.612A7.994,7.994,0,0,1,181,41.9L171.787,16H148.213L139,41.9a7.994,7.994,0,0,1-4.476,4.71L109.15,57.124a7.992,7.992,0,0,1-6.5-.165l-24.829-11.8L61.156,61.825l11.8,24.829a8,8,0,0,1,.165,6.5L62.612,118.526A7.994,7.994,0,0,1,57.9,123L32,132.213v23.574L57.9,165a7.994,7.994,0,0,1,4.71,4.476L73.124,194.85a8,8,0,0,1-.165,6.5l-11.8,24.829,16.669,16.669,24.829-11.8A7.992,7.992,0,0,1,109.15,230.876ZM160,72a72,72,0,1,1-72,72A72.081,72.081,0,0,1,160,72Z"/><path d="M338.631,328.818a24.974,24.974,0,0,1,24,6.5L368,340.687V312H334.57a8,8,0,0,1-7.537-5.318l-2.9-8.152-3.7,7.782c2.918,7.038,4.878,11.766,7.79,18.8Z"/><circle cx="160" cy="144" r="56"/><circle cx="217.416" cy="360" r="56"/><path d="M454.1,147a8,8,0,0,1-4.707-4.473l-1.228-2.96c-3.429-8.269-5.522-13.319-9.286-22.417a8,8,0,0,1,.167-6.491l11.8-24.831L434.175,69.158l-24.831,11.8a8,8,0,0,1-6.491.167c-9.1-3.764-14.148-5.857-22.417-9.286l-2.96-1.228A8,8,0,0,1,373,65.9L363.785,40h-23.57L331,65.9a8,8,0,0,1-4.473,4.707l-2.96,1.228c-8.269,3.429-13.319,5.522-22.417,9.286a8,8,0,0,1-6.491-.167l-22.18-10.539-9.457,19.895,7.79,18.806,27.872,9.912c.133.048.252.117.381.171a72,72,0,1,1-18.674,56.274l-9.579,3.407-7.79,18.806,12.7,26.717a8,8,0,0,1-1.569,9.092l-17.5,17.5c4.869,2.018,8.967,3.714,14.453,5.984l26.721-12.7a8,8,0,0,1,9.091,1.569l24.65,24.65a7.983,7.983,0,0,1,2.158,7.258L340.215,296h23.57L368,284.158V272a23.982,23.982,0,0,1,40.685-17.227c.222.082.443.168.659.271l24.831,11.8,16.667-16.667-11.8-24.831a8,8,0,0,1-.167-6.491c3.764-9.1,5.857-14.148,9.286-22.417l1.228-2.96A8,8,0,0,1,454.1,189l25.9-9.218v-23.57Z"/><path d="M442.745,320H408a8,8,0,0,1-8-8V272a8,8,0,0,0-16,0v88a8,8,0,0,1-13.657,5.657l-19.03-19.029a8.97,8.97,0,1,0-12.685,12.685l43.029,43.03A8,8,0,0,1,384,408v16h64V408a8,8,0,0,1,2.343-5.657L469.088,383.6A37.255,37.255,0,0,0,442.745,320Z"/><path d="M352,224a56,56,0,1,0-48-84.862v22.295a8,8,0,0,1-5.319,7.537l-2.633.936A56.057,56.057,0,0,0,352,224Z"/><path d="M368,496h96V440H368Zm64-40h16v16H432Z"/></g></svg>
