<?xml version="1.0" standalone="no"?>
<!DOCTYPE svg PUBLIC "-//W3C//DTD SVG 20010904//EN"
 "http://www.w3.org/TR/2001/REC-SVG-20010904/DTD/svg10.dtd">
<svg version="1.0" xmlns="http://www.w3.org/2000/svg"
 width="300.000000pt" height="168.000000pt" viewBox="0 0 300.000000 168.000000"
 preserveAspectRatio="xMidYMid meet">

<g transform="translate(0.000000,168.000000) scale(0.100000,-0.100000)"
fill="#000000" stroke="none">
<path d="M1465 1516 c-16 -7 -45 -25 -62 -40 -62 -52 -60 -54 230 -344 145
-144 270 -262 279 -262 9 0 30 12 47 26 52 43 44 64 -66 168 l-96 93 21 31
c39 54 32 68 -95 194 -143 142 -187 165 -258 134z"/>
<path d="M1309 1363 c5 -10 30 -40 55 -68 77 -83 50 -135 -31 -59 -43 41 -74
64 -85 64 -21 0 -3 -35 42 -85 56 -61 63 -85 26 -85 -18 0 -40 17 -77 59 -49
56 -79 69 -79 34 0 -30 111 -132 179 -164 54 -25 93 -58 217 -179 85 -85 162
-152 176 -155 59 -15 107 30 88 80 -6 16 -80 97 -166 180 -137 136 -156 158
-170 204 -12 41 -29 65 -87 121 -69 68 -109 91 -88 53z"/>
<path d="M2747 993 c-4 -3 -7 -100 -7 -214 l0 -207 -62 26 c-38 15 -89 27
-128 30 -60 3 -69 1 -112 -28 -152 -101 -142 -380 16 -463 53 -27 132 -26 209
3 l59 22 19 -21 c23 -25 47 -27 77 -5 l22 15 0 418 c0 373 -2 420 -16 425 -21
8 -69 8 -77 -1z m-78 -472 c52 -37 66 -67 66 -146 0 -82 -14 -111 -75 -152
-85 -59 -204 5 -224 119 -14 82 38 175 110 198 38 12 93 3 123 -19z"/>
<path d="M1046 949 c-77 -12 -167 -62 -225 -124 -196 -207 -138 -536 116 -662
65 -32 86 -37 162 -41 143 -7 246 32 336 129 193 206 131 543 -121 661 -57 27
-153 49 -199 47 -11 -1 -42 -5 -69 -10z m197 -106 c65 -20 157 -106 188 -175
18 -42 23 -70 23 -133 0 -101 -23 -156 -97 -229 -72 -72 -144 -100 -248 -94
-91 5 -155 33 -217 96 -187 187 -87 498 178 551 52 11 106 6 173 -16z"/>
<path d="M1040 801 c-144 -44 -223 -198 -180 -353 27 -95 131 -175 239 -185
170 -16 306 108 305 277 -1 156 -118 271 -274 269 -36 0 -76 -4 -90 -8z"/>
<path d="M203 915 c-11 -8 -14 -80 -13 -394 0 -211 1 -386 4 -388 2 -2 19 -6
38 -9 62 -11 67 3 67 197 1 94 4 175 7 180 3 5 58 9 123 9 132 0 145 5 139 62
l-3 33 -127 5 c-69 3 -129 8 -133 12 -9 8 -9 188 0 196 4 4 66 9 138 12 l132
5 3 38 c2 25 -1 39 -11 42 -26 11 -350 10 -364 0z"/>
<path d="M1861 625 c-99 -28 -162 -96 -183 -197 -28 -135 55 -274 186 -309 63
-17 157 -6 210 25 183 107 179 370 -7 460 -68 33 -137 40 -206 21z m160 -101
c52 -27 74 -71 74 -151 0 -57 -4 -77 -21 -99 -39 -53 -71 -69 -134 -69 -63 0
-95 16 -134 68 -24 32 -33 121 -17 169 30 91 141 130 232 82z"/>
</g>
</svg>
